<svg width="78" height="24" viewBox="0 0 78 24" fill="none" xmlns="http://www.w3.org/2000/svg">
<path d="M10 0C11.8437 1.52029e-06 13.3906 0.343761 14.6406 1.03125C15.8984 1.71874 16.8477 2.66408 17.4883 3.86719C18.1367 5.06247 18.4609 6.42192 18.4609 7.94531C18.4609 9.48431 18.1367 10.8516 17.4883 12.0469C16.8398 13.2421 15.8828 14.1836 14.6172 14.8711C13.3516 15.5507 11.7929 15.8906 9.94141 15.8906H5.34766V24H1V0H10Z" fill="#001196"/>
<path d="M9.75781 2.01644C9.98452 1.89648 10.2579 1.97094 10.3975 2.17855C10.4329 2.20411 10.4664 2.23358 10.4951 2.26937C10.5652 2.35666 10.5993 2.46079 10.6035 2.56527L11.9746 5.22152L12.0117 5.31527C12.0749 5.53953 11.9753 5.78626 11.7617 5.89925C11.5481 6.01227 11.2912 5.95402 11.1455 5.77328L11.0908 5.68832L10.2246 4.01058C9.67121 6.83147 8.83017 8.86743 7.5625 10.2381C6.05993 11.8626 4.03531 12.4754 1.45508 12.4754L1.45801 11.9725L1.45996 11.4705C3.88325 11.4705 5.59133 10.899 6.83594 9.55355C7.90394 8.39875 8.68245 6.61816 9.21777 3.96859L7.83398 5.10824C7.6208 5.28361 7.3076 5.25125 7.13477 5.03597C6.96194 4.82064 6.99484 4.50346 7.20801 4.32796L9.48438 2.45296C9.48762 2.43148 9.4919 2.4101 9.49512 2.38851H9.49609C9.51927 2.23529 9.61115 2.09417 9.75781 2.01644Z" fill="#FFB236"/>
<path d="M9.75781 2.01644L9.52397 1.57449L9.52367 1.57465L9.75781 2.01644ZM10.3975 2.17855L9.98247 2.45744L10.0323 2.5316L10.1047 2.58391L10.3975 2.17855ZM10.4951 2.26937L10.885 1.95634L10.8849 1.95624L10.4951 2.26937ZM10.6035 2.56527L10.1039 2.58531L10.1084 2.69609L10.1592 2.79461L10.6035 2.56527ZM11.9746 5.22152L12.4395 5.03749L12.4303 5.01432L12.4189 4.99218L11.9746 5.22152ZM12.0117 5.31527L12.493 5.1796L12.486 5.155L12.4766 5.13124L12.0117 5.31527ZM11.7617 5.89925L11.9956 6.3412L11.9956 6.3412L11.7617 5.89925ZM11.1455 5.77328L10.7251 6.0439L10.7395 6.0663L10.7562 6.08703L11.1455 5.77328ZM11.0908 5.68832L10.6465 5.9177L10.6575 5.93889L10.6704 5.95894L11.0908 5.68832ZM10.2246 4.01058L10.6689 3.7812L10.0103 2.50563L9.73396 3.91433L10.2246 4.01058ZM7.5625 10.2381L7.92956 10.5776L7.92958 10.5776L7.5625 10.2381ZM1.45508 12.4754L0.955087 12.4725L0.952157 12.9754L1.45508 12.9754L1.45508 12.4754ZM1.45801 11.9725L1.958 11.9754L1.958 11.9744L1.45801 11.9725ZM1.45996 11.4705L1.45996 10.9705L0.961903 10.9705L0.959965 11.4686L1.45996 11.4705ZM6.83594 9.55355L7.20297 9.89309L7.20302 9.89304L6.83594 9.55355ZM9.21777 3.96859L9.70787 4.06761L9.98669 2.68759L8.89991 3.58263L9.21777 3.96859ZM7.83398 5.10824L8.15163 5.49437L8.15185 5.49419L7.83398 5.10824ZM7.13477 5.03597L6.74483 5.34894L6.74488 5.349L7.13477 5.03597ZM7.20801 4.32796L7.52581 4.71398L7.5259 4.7139L7.20801 4.32796ZM9.48438 2.45296L9.80226 2.8389L9.95015 2.71709L9.97877 2.52765L9.48438 2.45296ZM9.49512 2.38851V1.88851H9.0642L9.00059 2.31471L9.49512 2.38851ZM9.49609 2.38851V2.88851H9.92615L9.99047 2.4633L9.49609 2.38851ZM9.75781 2.01644L9.99166 2.45839C9.99225 2.45807 9.99121 2.45866 9.9891 2.4589C9.98727 2.4591 9.98584 2.45891 9.98493 2.45868C9.98319 2.45823 9.98233 2.45724 9.98247 2.45744L10.3975 2.17855L10.8125 1.89966C10.5339 1.48516 9.98259 1.33182 9.52397 1.5745L9.75781 2.01644ZM10.3975 2.17855L10.1047 2.58391C10.114 2.59059 10.1116 2.59028 10.1053 2.5825L10.4951 2.26937L10.8849 1.95624C10.8212 1.87688 10.7517 1.81763 10.6902 1.77319L10.3975 2.17855ZM10.4951 2.26937L10.1052 2.5824C10.104 2.58081 10.1032 2.57919 10.103 2.57868C10.103 2.57851 10.1037 2.5806 10.1039 2.58531L10.6035 2.56527L11.1031 2.54523C11.0951 2.34538 11.0289 2.1356 10.885 1.95634L10.4951 2.26937ZM10.6035 2.56527L10.1592 2.79461L11.5303 5.45086L11.9746 5.22152L12.4189 4.99218L11.0478 2.33593L10.6035 2.56527ZM11.9746 5.22152L11.5097 5.40554L11.5468 5.49929L12.0117 5.31527L12.4766 5.13124L12.4395 5.03749L11.9746 5.22152ZM12.0117 5.31527L11.5305 5.45094C11.5304 5.4505 11.5309 5.45212 11.5297 5.455C11.5292 5.45616 11.5287 5.45672 11.5286 5.45684C11.5286 5.45689 11.5286 5.45689 11.5286 5.4569C11.5285 5.45691 11.5285 5.45694 11.5284 5.457C11.5283 5.45706 11.5281 5.45716 11.5279 5.45731L11.7617 5.89925L11.9956 6.3412C12.4221 6.11552 12.6187 5.62547 12.493 5.1796L12.0117 5.31527ZM11.7617 5.89925L11.5279 5.4573C11.5272 5.45769 11.5277 5.45733 11.529 5.45715C11.53 5.45701 11.5309 5.45709 11.5314 5.4572C11.532 5.45734 11.5335 5.45791 11.5348 5.45952L11.1455 5.77328L10.7562 6.08703C11.0494 6.45078 11.5665 6.56822 11.9956 6.3412L11.7617 5.89925ZM11.1455 5.77328L11.5659 5.50265L11.5113 5.41769L11.0908 5.68832L10.6704 5.95894L10.7251 6.0439L11.1455 5.77328ZM11.0908 5.68832L11.5351 5.45894L10.6689 3.7812L10.2246 4.01058L9.78033 4.23996L10.6465 5.9177L11.0908 5.68832ZM10.2246 4.01058L9.73396 3.91433C9.18808 6.69691 8.37163 8.62683 7.19542 9.89863L7.5625 10.2381L7.92958 10.5776C9.2887 9.10803 10.1543 6.96604 10.7153 4.10684L10.2246 4.01058ZM7.5625 10.2381L7.19544 9.89861C5.82139 11.3842 3.95521 11.9754 1.45507 11.9754L1.45508 12.4754L1.45508 12.9754C4.11541 12.9754 6.29848 12.3411 7.92956 10.5776L7.5625 10.2381ZM1.45508 12.4754L1.95507 12.4783L1.958 11.9754L1.45801 11.9725L0.958016 11.9696L0.955087 12.4725L1.45508 12.4754ZM1.45801 11.9725L1.958 11.9744L1.95996 11.4725L1.45996 11.4705L0.959965 11.4686L0.958012 11.9705L1.45801 11.9725ZM1.45996 11.4705L1.45996 11.9705C3.96399 11.9705 5.83016 11.3771 7.20297 9.89309L6.83594 9.55355L6.4689 9.21401C5.3525 10.4208 3.80251 10.9705 1.45996 10.9705L1.45996 11.4705ZM6.83594 9.55355L7.20302 9.89304C8.36122 8.64071 9.16475 6.75578 9.70787 4.06761L9.21777 3.96859L8.72768 3.86957C8.20015 6.48055 7.44666 8.1568 6.46886 9.21406L6.83594 9.55355ZM9.21777 3.96859L8.89991 3.58263L7.51612 4.72228L7.83398 5.10824L8.15185 5.49419L9.53564 4.35455L9.21777 3.96859ZM7.83398 5.10824L7.51633 4.72211C7.5157 4.72263 7.51634 4.72202 7.5179 4.72156C7.5191 4.7212 7.52003 4.72119 7.52064 4.72125C7.52126 4.72131 7.52216 4.72152 7.52326 4.72211C7.52468 4.72287 7.52518 4.7236 7.52466 4.72295L7.13477 5.03597L6.74488 5.349C7.09204 5.78141 7.72338 5.84667 8.15163 5.49437L7.83398 5.10824ZM7.13477 5.03597L7.5247 4.723C7.52419 4.72236 7.52421 4.72227 7.52417 4.72212C7.52403 4.72162 7.52379 4.72034 7.52398 4.71852C7.52417 4.7167 7.52467 4.71545 7.52495 4.71492C7.52506 4.71471 7.52511 4.71455 7.52581 4.71398L7.20801 4.32796L6.89021 3.94195C6.46596 4.29123 6.40049 4.91991 6.74483 5.34894L7.13477 5.03597ZM7.20801 4.32796L7.5259 4.7139L9.80226 2.8389L9.48438 2.45296L9.16649 2.06703L6.89012 3.94203L7.20801 4.32796ZM9.48438 2.45296L9.97877 2.52765C9.97936 2.52369 9.98019 2.51887 9.98227 2.50694C9.98401 2.49701 9.98696 2.48025 9.98964 2.46232L9.49512 2.38851L9.00059 2.31471C9.00005 2.31835 8.99925 2.32308 8.99724 2.33461C8.99557 2.34414 8.99263 2.36075 8.98998 2.37828L9.48438 2.45296ZM9.49512 2.38851V2.88851H9.49609V2.38851V1.88851H9.49512V2.38851ZM9.49609 2.38851L9.99047 2.4633C9.9909 2.46048 9.9919 2.45854 9.99238 2.45786C9.99253 2.45763 9.99249 2.45774 9.9922 2.458C9.99185 2.45831 9.99166 2.45839 9.99196 2.45823L9.75781 2.01644L9.52367 1.57465C9.22825 1.73122 9.04707 2.01393 9.00172 2.31373L9.49609 2.38851Z" fill="#FFB236"/>
<path d="M22.4409 17V9.44H23.5539V11.267L23.3719 11.029C23.4606 10.7957 23.5749 10.581 23.7149 10.385C23.8596 10.189 24.0206 10.028 24.1979 9.902C24.3939 9.74333 24.6156 9.622 24.8629 9.538C25.1103 9.454 25.3623 9.405 25.6189 9.391C25.8756 9.37233 26.1159 9.38867 26.3399 9.44V10.609C26.0786 10.539 25.7916 10.5203 25.4789 10.553C25.1663 10.5857 24.8769 10.7 24.6109 10.896C24.3683 11.0687 24.1793 11.2787 24.0439 11.526C23.9133 11.7733 23.8223 12.0417 23.7709 12.331C23.7196 12.6157 23.6939 12.9073 23.6939 13.206V17H22.4409ZM30.7469 17.21C29.9955 17.21 29.3469 17.0397 28.8009 16.699C28.2595 16.3583 27.8419 15.887 27.5479 15.285C27.2539 14.683 27.1069 13.9923 27.1069 13.213C27.1069 12.4197 27.2562 11.7243 27.5549 11.127C27.8535 10.5297 28.2759 10.0653 28.8219 9.734C29.3679 9.398 30.0095 9.23 30.7469 9.23C31.5029 9.23 32.1539 9.40033 32.6999 9.741C33.2459 10.077 33.6635 10.546 33.9529 11.148C34.2469 11.7453 34.3939 12.4337 34.3939 13.213C34.3939 14.0017 34.2469 14.697 33.9529 15.299C33.6589 15.8963 33.2389 16.3653 32.6929 16.706C32.1469 17.042 31.4982 17.21 30.7469 17.21ZM30.7469 16.027C31.5309 16.027 32.1142 15.7657 32.4969 15.243C32.8795 14.7203 33.0709 14.0437 33.0709 13.213C33.0709 12.359 32.8772 11.68 32.4899 11.176C32.1025 10.6673 31.5215 10.413 30.7469 10.413C30.2195 10.413 29.7855 10.532 29.4449 10.77C29.1042 11.008 28.8499 11.337 28.6819 11.757C28.5139 12.177 28.4299 12.6623 28.4299 13.213C28.4299 14.0623 28.6259 14.7437 29.0179 15.257C29.4099 15.7703 29.9862 16.027 30.7469 16.027ZM38.9031 17.21C38.1984 17.21 37.5941 17.035 37.0901 16.685C36.5861 16.3303 36.1964 15.852 35.9211 15.25C35.6504 14.648 35.5151 13.969 35.5151 13.213C35.5151 12.457 35.6504 11.778 35.9211 11.176C36.1964 10.574 36.5861 10.1003 37.0901 9.755C37.5941 9.405 38.1961 9.23 38.8961 9.23C39.6101 9.23 40.2097 9.40267 40.6951 9.748C41.1804 10.0933 41.5467 10.567 41.7941 11.169C42.0461 11.771 42.1721 12.4523 42.1721 13.213C42.1721 13.9643 42.0461 14.6433 41.7941 15.25C41.5467 15.852 41.1804 16.3303 40.6951 16.685C40.2097 17.035 39.6124 17.21 38.9031 17.21ZM39.0571 16.069C39.5657 16.069 39.9834 15.9477 40.3101 15.705C40.6367 15.4577 40.8771 15.1193 41.0311 14.69C41.1897 14.256 41.2691 13.7637 41.2691 13.213C41.2691 12.653 41.1897 12.1607 41.0311 11.736C40.8771 11.3067 40.6391 10.973 40.3171 10.735C39.9951 10.4923 39.5867 10.371 39.0921 10.371C38.5787 10.371 38.1541 10.497 37.8181 10.749C37.4867 11.001 37.2394 11.3417 37.0761 11.771C36.9174 12.2003 36.8381 12.681 36.8381 13.213C36.8381 13.7497 36.9197 14.235 37.0831 14.669C37.2464 15.0983 37.4914 15.439 37.8181 15.691C38.1494 15.943 38.5624 16.069 39.0571 16.069ZM41.2691 17V11.435H41.1291V6.92H42.3821V17H41.2691ZM47.6193 17.21C46.8773 17.21 46.2286 17.0467 45.6733 16.72C45.1226 16.3887 44.6933 15.929 44.3853 15.341C44.0773 14.7483 43.9233 14.0577 43.9233 13.269C43.9233 12.443 44.0749 11.729 44.3783 11.127C44.6816 10.5203 45.1039 10.0537 45.6453 9.727C46.1913 9.39567 46.8306 9.23 47.5633 9.23C48.3239 9.23 48.9703 9.405 49.5023 9.755C50.0389 10.105 50.4403 10.6043 50.7063 11.253C50.9769 11.9017 51.0936 12.674 51.0563 13.57H49.7963V13.122C49.7823 12.1933 49.5933 11.5003 49.2293 11.043C48.8653 10.581 48.3239 10.35 47.6053 10.35C46.8353 10.35 46.2496 10.5973 45.8483 11.092C45.4469 11.5867 45.2463 12.296 45.2463 13.22C45.2463 14.1113 45.4469 14.802 45.8483 15.292C46.2496 15.782 46.8213 16.027 47.5633 16.027C48.0626 16.027 48.4966 15.9127 48.8653 15.684C49.2339 15.4553 49.5233 15.1263 49.7333 14.697L50.9303 15.11C50.6363 15.7773 50.1929 16.2953 49.6003 16.664C49.0123 17.028 48.3519 17.21 47.6193 17.21ZM44.8263 13.57V12.569H50.4123V13.57H44.8263ZM53.3358 17V9.027C53.3358 8.831 53.3451 8.63267 53.3638 8.432C53.3824 8.22667 53.4244 8.02833 53.4898 7.837C53.5551 7.641 53.6624 7.46133 53.8118 7.298C53.9844 7.10667 54.1734 6.97133 54.3788 6.892C54.5841 6.808 54.7918 6.75667 55.0018 6.738C55.2164 6.71933 55.4194 6.71 55.6108 6.71H56.5698V7.746H55.6808C55.3121 7.746 55.0368 7.837 54.8548 8.019C54.6728 8.19633 54.5818 8.467 54.5818 8.831V17H53.3358ZM52.0548 10.469V9.44H56.5698V10.469H52.0548ZM58.0398 8.103V6.815H59.2858V8.103H58.0398ZM58.0398 17V9.44H59.2858V17H58.0398ZM64.6681 17.21C63.9261 17.21 63.2774 17.0467 62.7221 16.72C62.1714 16.3887 61.7421 15.929 61.4341 15.341C61.1261 14.7483 60.9721 14.0577 60.9721 13.269C60.9721 12.443 61.1238 11.729 61.4271 11.127C61.7304 10.5203 62.1528 10.0537 62.6941 9.727C63.2401 9.39567 63.8794 9.23 64.6121 9.23C65.3728 9.23 66.0191 9.405 66.5511 9.755C67.0878 10.105 67.4891 10.6043 67.7551 11.253C68.0258 11.9017 68.1424 12.674 68.1051 13.57H66.8451V13.122C66.8311 12.1933 66.6421 11.5003 66.2781 11.043C65.9141 10.581 65.3728 10.35 64.6541 10.35C63.8841 10.35 63.2984 10.5973 62.8971 11.092C62.4958 11.5867 62.2951 12.296 62.2951 13.22C62.2951 14.1113 62.4958 14.802 62.8971 15.292C63.2984 15.782 63.8701 16.027 64.6121 16.027C65.1114 16.027 65.5454 15.9127 65.9141 15.684C66.2828 15.4553 66.5721 15.1263 66.7821 14.697L67.9791 15.11C67.6851 15.7773 67.2418 16.2953 66.6491 16.664C66.0611 17.028 65.4008 17.21 64.6681 17.21ZM61.8751 13.57V12.569H67.4611V13.57H61.8751ZM72.6316 17.21C71.9269 17.21 71.3226 17.035 70.8186 16.685C70.3146 16.3303 69.9249 15.852 69.6496 15.25C69.3789 14.648 69.2436 13.969 69.2436 13.213C69.2436 12.457 69.3789 11.778 69.6496 11.176C69.9249 10.574 70.3146 10.1003 70.8186 9.755C71.3226 9.405 71.9246 9.23 72.6246 9.23C73.3386 9.23 73.9383 9.40267 74.4236 9.748C74.9089 10.0933 75.2753 10.567 75.5226 11.169C75.7746 11.771 75.9006 12.4523 75.9006 13.213C75.9006 13.9643 75.7746 14.6433 75.5226 15.25C75.2753 15.852 74.9089 16.3303 74.4236 16.685C73.9383 17.035 73.3409 17.21 72.6316 17.21ZM72.7856 16.069C73.2943 16.069 73.7119 15.9477 74.0386 15.705C74.3653 15.4577 74.6056 15.1193 74.7596 14.69C74.9183 14.256 74.9976 13.7637 74.9976 13.213C74.9976 12.653 74.9183 12.1607 74.7596 11.736C74.6056 11.3067 74.3676 10.973 74.0456 10.735C73.7236 10.4923 73.3153 10.371 72.8206 10.371C72.3073 10.371 71.8826 10.497 71.5466 10.749C71.2153 11.001 70.9679 11.3417 70.8046 11.771C70.6459 12.2003 70.5666 12.681 70.5666 13.213C70.5666 13.7497 70.6483 14.235 70.8116 14.669C70.9749 15.0983 71.2199 15.439 71.5466 15.691C71.8779 15.943 72.2909 16.069 72.7856 16.069ZM74.9976 17V11.435H74.8576V6.92H76.1106V17H74.9976Z" fill="#1B1A1A"/>
</svg>
